<?xml version="1.0" encoding="UTF-8"?>
<svg width="200" height="300" viewBox="0 0 200 300" xmlns="http://www.w3.org/2000/svg">
  <!-- 背景和邊框 -->
  <rect width="200" height="300" rx="5" fill="#2F3542" />
  <rect x="5" y="5" width="190" height="290" rx="3" fill="#3E4553" stroke="#222831" stroke-width="2" />

  <!-- 裝飾元素 - 霧氣 -->
  <path d="M0,150 C30,130 60,160 100,140 C140,120 160,150 200,130" stroke="#A4B0BE" stroke-width="15" fill="none" opacity="0.5" />
  <path d="M0,180 C40,160 70,190 120,170 C170,150 180,180 200,160" stroke="#A4B0BE" stroke-width="10" fill="none" opacity="0.4" />
  <path d="M0,210 C50,190 80,220 130,200 C180,180 190,210 200,190" stroke="#A4B0BE" stroke-width="12" fill="none" opacity="0.3" />

  <!-- 裝飾元素 - 城市輪廓 -->
  <rect x="20" y="120" width="20" height="80" fill="#222831" />
  <rect x="45" y="90" width="15" height="110" fill="#222831" />
  <rect x="65" y="140" width="25" height="60" fill="#222831" />
  <rect x="95" y="100" width="15" height="100" fill="#222831" />
  <rect x="115" y="130" width="30" height="70" fill="#222831" />
  <rect x="150" y="80" width="20" height="120" fill="#222831" />
  <rect x="175" y="110" width="15" height="90" fill="#222831" />

  <!-- 裝飾元素 - 建築物窗戶 -->
  <rect x="25" y="130" width="5" height="5" fill="#FFCC33" opacity="0.8" />
  <rect x="25" y="145" width="5" height="5" fill="#FFCC33" opacity="0.8" />
  <rect x="50" y="100" width="5" height="5" fill="#FFCC33" opacity="0.8" />
  <rect x="50" y="130" width="5" height="5" fill="#FFCC33" opacity="0.8" />
  <rect x="70" y="150" width="5" height="5" fill="#FFCC33" opacity="0.8" />
  <rect x="100" y="110" width="5" height="5" fill="#FFCC33" opacity="0.8" />
  <rect x="125" y="140" width="5" height="5" fill="#FFCC33" opacity="0.8" />
  <rect x="155" y="90" width="5" height="5" fill="#FFCC33" opacity="0.8" />
  <rect x="155" y="120" width="5" height="5" fill="#FFCC33" opacity="0.8" />
  <rect x="180" y="120" width="5" height="5" fill="#FFCC33" opacity="0.8" />

  <!-- 書名和作者 -->
  <text x="100" y="60" font-family="Arial, sans-serif" font-size="24" font-weight="bold" text-anchor="middle" fill="#FFFFFF">城市迷霧</text>
  <text x="100" y="260" font-family="Arial, sans-serif" font-size="16" text-anchor="middle" fill="#A4B0BE">張靜怡</text>
</svg>